<?xml version='1.0' encoding='UTF-8' standalone='no'?>
<!-- Created with Fritzing (http://www.fritzing.org/) -->
<svg xmlns:svg='http://www.w3.org/2000/svg' xmlns='http://www.w3.org/2000/svg' version='1.2' baseProfile='tiny' x='0in' y='0in' width='4.57537in' height='2.73667in' viewBox='0 0 329.427 197.04' >
<path stroke='#8c8c8c' stroke-width='2.1' stroke-linecap='round' stroke-linejoin='round' fill='none' d='M275.299,47.5305L275.299,51.9925' />
<path stroke='#8c8c8c' stroke-width='2.1' stroke-linecap='round' stroke-linejoin='round' fill='none' d='M253.071,47.5305L253.071,51.9925' />
<g partID='72270'><g transform='translate(252.021,42.1105)' ><g xmlns="http://www.w3.org/2000/svg" id="breadboard">
 <rect xmlns="http://www.w3.org/2000/svg" y="4.28399" width="1" fill="none" id="connector0pin" height="0.999998" x="0.284"/>
 <rect xmlns="http://www.w3.org/2000/svg" y="4.28399" width="1" fill="none" id="connector1pin" height="0.999998" x="21.885"/>
 <g xmlns="http://www.w3.org/2000/svg" x2="1.05" y1="5.42" stroke="#8C8C8C" y2="9.882" stroke-linecap="round" id="connector0leg" fill="none" x1="1.05" stroke-width="2.1"/>
 <g xmlns="http://www.w3.org/2000/svg" x2="23.278" y1="5.42" stroke="#8C8C8C" y2="9.882" stroke-linecap="round" id="connector1leg" fill="none" x1="23.278" stroke-width="2.1"/>
 <g xmlns="http://www.w3.org/2000/svg">
  <path xmlns="http://www.w3.org/2000/svg" stroke="#8C8C8C" stroke-linecap="round" d="M23.278,5.41999L1.05,5.41999" fill="none" stroke-width="2.1"/>
  <path xmlns="http://www.w3.org/2000/svg" d="M4.864,5.46499c0,2.178,0.959,4.12699,2.473,5.46699l9.655,0c1.517,-1.338,2.477,-3.28599,2.477,-5.46699c0,-2.177,-0.96,-4.12599,-2.477,-5.46499L7.336,-8.88176e-16C5.823,1.337,4.864,3.28699,4.864,5.46499z"/>
  <rect xmlns="http://www.w3.org/2000/svg" y="0" width="9.656" height="10.932" x="7.336"/>
  <path xmlns="http://www.w3.org/2000/svg" d="M17.009,10.306c0,0,-2.349,0.228999,-4.845,0.228999S7.32,10.306,7.32,10.306S7.096,7.96198,7.096,5.46499c0,-2.49599,0.225,-4.84399,0.225,-4.84399s2.348,-0.228999,4.844,-0.228999c2.495,0,4.844,0.228999,4.844,0.228999s0.228,2.34799,0.228,4.84399C17.232,7.96198,17.009,10.306,17.009,10.306z" fill="#CCCCCC"/>
  <path xmlns="http://www.w3.org/2000/svg" d="M16.482,1.36l-0.031,-0.182l-0.184,-0.0309999c-0.021,-0.00299999,-1.979,-0.311999,-4.104,-0.311999c-1.109,0,-2.163,0.0869998,-2.851,0.146c-0.691,0.0739998,-1.05,0.114,-1.244,0.164c-0.057,0,-0.105,0.021,-0.145,0.0619999C7.861,1.235,7.848,1.288,7.846,1.35C7.786,1.538,7.738,1.9,7.667,2.61299C7.614,3.14899,7.525,4.23999,7.525,5.46999c0,2.136,0.32,4.08799,0.323,4.10499l0.031,0.181l0.181,0.0299999C8.079,9.78998,10.031,10.1,12.165,10.1c2.138,0,4.086,-0.311999,4.104,-0.311999l0.184,-0.0299999l0.029,-0.181c0.004,-0.021,0.32,-1.979,0.32,-4.10499S16.484,1.379,16.482,1.36zM8.326,9.30298c-0.077,-0.523999,-0.29,-2.118,-0.29,-3.83799c0,-1.8,0.188,-3.38199,0.271,-3.83899C8.49,1.599,8.834,1.552,9.271,1.505C9.264,1.548,9.253,1.583,9.253,1.63c0,0.305999,0.188,0.820998,0.21,0.878998C9.508,2.62799,9.63,2.69799,9.755,2.67099c0.012,-0.002,1.157,-0.234999,2.41,-0.234999c1.188,0,2.271,0.209,2.39,0.229999c0.002,0.00499999,0.012,0.02,0.012,0.0609999c0,0.104,-0.049,0.270999,-0.103,0.415999c-0.282,-0.0489999,-0.815,-0.125,-1.434,-0.125c-0.887,0,-1.736,0.158,-1.771,0.165c-0.075,0.021,-0.138,0.0619999,-0.176,0.126c-0.017,0.0299999,-0.103,0.196,-0.103,0.520999c0,0.270999,0.071,0.645999,0.074,0.675999c0.013,0.0619999,0.051,0.127,0.107,0.165c0.057,0.0389999,0.127,0.0519999,0.195,0.0389999c0.003,0,0.389,-0.0749998,0.809,-0.0749998c0.26,0,0.495,0.0279999,0.646,0.0499999c0.021,0.0649999,0.021,0.147,0.021,0.240999c0,0.103,-0.012,0.204,-0.023,0.289999l-0.645,0l-0.858,0c-0.119,0,-0.222,0.0809998,-0.25,0.195c-0.003,0.012,-0.076,0.309999,-0.076,0.603999c0,0.300999,0.075,0.523999,0.082,0.550999c0.03,0.0859998,0.104,0.151,0.194,0.169c0.018,0.00299999,0.436,0.0839998,0.908,0.0839998c0.247,0,0.476,-0.02,0.645,-0.0439999c0.021,0.105,0.025,0.228999,0.025,0.334999c0,0.0739998,-0.009,0.119,-0.016,0.163c-0.28,0.0439999,-0.896,0.129,-1.521,0.129c-0.833,0,-1.535,-0.146,-1.542,-0.146c-0.1,-0.021,-0.2,0.016,-0.26,0.0969998C9.475,7.37698,9.264,7.66598,9.264,8.00998c0,0.344999,0.211,0.629999,0.236,0.660999C9.538,8.71998,9.592,8.75398,9.652,8.76698c0.048,0.012,1.207,0.245999,2.513,0.245999c0.985,0,1.885,-0.134,2.29,-0.203c0.054,0.177,0.105,0.383999,0.105,0.494999c0,0.0829998,-0.029,0.139,-0.062,0.179c-0.676,0.0619999,-1.486,0.113,-2.339,0.113C10.445,9.59298,8.85,9.38098,8.326,9.30298zM16.002,9.30298c-0.189,0.0279999,-0.521,0.0749998,-0.941,0.12c0.006,-0.0409999,0.021,-0.0749998,0.021,-0.123c0,-0.303999,-0.188,-0.819998,-0.211,-0.876998c-0.044,-0.12,-0.167,-0.189,-0.292,-0.163c-0.017,0.002,-1.158,0.234999,-2.41,0.234999c-1.042,0,-2.001,-0.16,-2.303,-0.215C9.825,8.20798,9.782,8.09998,9.782,8.00598c0,-0.0759998,0.026,-0.156,0.056,-0.225c0.275,0.0479999,0.826,0.132,1.465,0.132c0.886,0,1.736,-0.159,1.771,-0.165c0.07,-0.021,0.139,-0.0619999,0.176,-0.128c0.02,-0.0299999,0.104,-0.194,0.104,-0.520999c0,-0.286999,-0.062,-0.659999,-0.062,-0.674999c-0.021,-0.0659999,-0.062,-0.126,-0.104,-0.162c-0.062,-0.0389999,-0.129,-0.0529999,-0.188,-0.0409999C12.975,6.22599,12.586,6.29999,12.17,6.29999c-0.261,0,-0.496,-0.0279999,-0.647,-0.0489999c-0.012,-0.0659999,-0.022,-0.146,-0.022,-0.239999c0,-0.104,0.012,-0.204,0.025,-0.290999l0.644,0l0.855,0c0.119,0,0.226,-0.0819998,0.252,-0.196c0.002,-0.013,0.074,-0.311999,0.074,-0.603999c0,-0.301999,-0.074,-0.523999,-0.082,-0.551999C13.24,4.26999,13.165,4.21799,13.078,4.19999c-0.02,-0.021,-0.437,-0.103,-0.909,-0.103c-0.248,0,-0.475,0.022,-0.645,0.0619999c-0.014,-0.106,-0.026,-0.228999,-0.026,-0.352999c0,-0.0619999,0.009,-0.104,0.015,-0.146c0.28,-0.0439999,0.896,-0.146,1.521,-0.146c0.829,0,1.532,0.153,1.541,0.154c0.118,0.0259999,0.239,-0.0349999,0.288,-0.146c0.021,-0.0599999,0.219,-0.491999,0.219,-0.811998c0,-0.375999,-0.264,-0.529999,-0.398,-0.561999c-0.05,-0.021,-1.207,-0.240999,-2.515,-0.240999c-0.985,0,-1.884,0.136,-2.291,0.2c-0.055,-0.188,-0.11,-0.391999,-0.11,-0.491999c0,-0.0809998,0.031,-0.146,0.06,-0.187c0.681,-0.0619999,1.498,-0.104,2.339,-0.104c1.72,0,3.312,0.212,3.838,0.285999c0.076,0.520999,0.289,2.115,0.289,3.83999C16.289,7.18398,16.08,8.77798,16.002,9.30298z" fill="#8F0000"/>
  <circle xmlns="http://www.w3.org/2000/svg" cy="5.46599" cx="6.433" fill="#8C8C8C" r="1.379"/>
  <circle xmlns="http://www.w3.org/2000/svg" cy="5.46499" cx="17.895" fill="#8C8C8C" r="1.379"/>
  <path xmlns="http://www.w3.org/2000/svg" opacity="0.2" d="M16.992,0L7.336,0C5.823,1.337,4.864,3.28699,4.864,5.46499s0.959,4.12699,2.473,5.46699l9.655,0c1.517,-1.338,2.477,-3.28599,2.477,-5.46699C19.466,3.28699,18.507,1.337,16.992,0zM11.868,9.66098c-2.485,0,-4.5,-2.021,-4.5,-4.49999c0,-2.48499,2.015,-4.50099,4.5,-4.50099c2.483,0,4.501,2.016,4.501,4.50099C16.369,7.64498,14.354,9.66098,11.868,9.66098z"/>
  <circle xmlns="http://www.w3.org/2000/svg" opacity="0.8" cy="3.39799" cx="10.357" fill="#FFFFFF" r="1.17"/>
 </g>
</g>
</g></g><path stroke='#8c8c8c' stroke-width='2.0952' stroke-linecap='round' stroke-linejoin='round' fill='none' d='M187.852,51.9925L188.899,51.9925' />
<path stroke='#8c8c8c' stroke-width='2.0952' stroke-linecap='round' stroke-linejoin='round' fill='none' d='M161.142,51.9925L160.094,51.9925' />
<g partID='76680'><g transform='translate(159.047,48.3601)' ><g xmlns="http://www.w3.org/2000/svg" id="breadboard">
 <rect xmlns="http://www.w3.org/2000/svg" y="2.5848" id="connector0pin" fill="none" width="0.72" height="0.72" x="0.36"/>
 <rect xmlns="http://www.w3.org/2000/svg" y="2.5848" id="connector1pin" fill="none" width="0.72" height="0.72" x="29.8202"/>
 <line xmlns="http://www.w3.org/2000/svg" x2="2.0952" y1="3.6324" stroke="#8C8C8C" y2="3.6324" stroke-linecap="round" id="connector0leg" fill="none" x1="1.0476" stroke-width="2.0952"/>
 <line xmlns="http://www.w3.org/2000/svg" x2="28.805" y1="3.6324" stroke="#8C8C8C" y2="3.6324" stroke-linecap="round" id="connector1leg" fill="none" x1="29.8526" stroke-width="2.0952"/>
 <path xmlns="http://www.w3.org/2000/svg" stroke="#8C8C8C" d="M1.0476,3.6324l28.3666,0" fill="none" stroke-width="2.0952"/>
 <path xmlns="http://www.w3.org/2000/svg" d="M10.2478,0.49536c-0.36,-0.1656,-0.9792,-0.2952,-1.3752,-0.2952l-1.9872,0c-0.396,0,-0.72,0.324,-0.72,0.72l0,5.35608c0,0.39672,0.324,0.72,0.72,0.72l1.9872,0c0.396,0,1.0152,-0.13608,1.3752,-0.2952l0.072,-0.03528c0.36,-0.1656,0.9792,-0.2952,1.3752,-0.2952l7.1856,0c0.39672,0,1.01448,0.13608,1.37448,0.2952l0.07272,0.03528c0.36,0.1656,0.97776,0.2952,1.3752,0.2952l1.9872,0c0.39744,0,0.72,-0.32328,0.72,-0.72L24.4102,0.92016c0,-0.396,-0.32256,-0.72,-0.72,-0.72l-1.9872,0c-0.39744,0,-1.0152,0.1368,-1.3752,0.2952l-0.07272,0.036c-0.36,0.1656,-0.97776,0.2952,-1.37448,0.2952l-7.1856,0c-0.396,0,-1.0152,-0.1368,-1.3752,-0.2952L10.2478,0.49536z" id="body" fill="#D9B477"/>
 <rect xmlns="http://www.w3.org/2000/svg" y="0.19368" id="gold_band" fill="#ad9f4e" width="0.70272" height="6.79536" x="22.019"/>
 <rect xmlns="http://www.w3.org/2000/svg" y="0.82656" id="band_rd_multiplier" fill="#8a3d06" width="1.8504" height="5.5368" x="16.1726"/>
 <rect xmlns="http://www.w3.org/2000/svg" y="0.82656" id="band_2_nd" fill="#000000" width="1.8504" height="5.5368" x="12.4726"/>
 <path xmlns="http://www.w3.org/2000/svg" d="M10.6286,0.63936c-0.1152,-0.036,-0.2232,-0.072,-0.3096,-0.1152l-0.072,-0.036c-0.36,-0.16488,-0.9792,-0.2952,-1.3752,-0.2952l-0.0864,0l0,6.79608l0.0864,0c0.396,0,1.0152,-0.13608,1.3752,-0.2952l0.072,-0.03528c0.0864,-0.04464,0.1944,-0.07992,0.3096,-0.1152L10.6286,0.63936z" id="band_1_st" fill="#8a3d06"/>
 <path xmlns="http://www.w3.org/2000/svg" opacity="0.3" d="M23.711,4.0896L23.711,4.0896c0,0.37944,-0.13032,0.69912,-0.2952,0.69912l-1.9224,0c-0.38016,0,-0.97776,-0.05616,-1.33272,-0.1224L20.088,4.65048c-0.34488,-0.0648,-0.94896,-0.1224,-1.33344,-0.1224L11.808,4.52808c-0.3816,0,-0.9792,0.0576,-1.332,0.1224l-0.072,0.01512c-0.3456,0.06552,-0.9432,0.1224,-1.332,0.1224l-0.3168,0l-1.0008,0l-0.3096,0c-0.3816,0,-0.6984,0.29376,-0.6984,0.64512l0,0.24696L6.7464,5.8392l0,0.1728c0,0.36,0.3168,0.64512,0.6984,0.64512l1.62,0c0.3816,0,0.9792,-0.1224,1.332,-0.26712l0.072,-0.02808c0.3456,-0.14112,0.9504,-0.26496,1.332,-0.26496l6.94656,0c0.37944,0,0.97704,0.12384,1.33416,0.26568l0.07416,0.02808c0.34488,0.14472,0.94464,0.26712,1.33344,0.26712l2.2248,0c0.38088,0,0.69912,-0.2952,0.69912,-0.64512L24.413,5.472L24.413,4.49928L24.413,2.65536C24.1358,2.76336,23.711,3.06576,23.711,4.0896z" id="Shadow"/>
 <rect xmlns="http://www.w3.org/2000/svg" opacity="0.4" y="3.48336" id="ShadowExtra" width="0.70272" height="3.15288" x="22.019"/>
 <path xmlns="http://www.w3.org/2000/svg" opacity="0.25" d="M19.751,1.08576c0.22968,0,0.49104,-0.1008,0.6624,-0.1728c0.2016,-0.0792,0.57672,-0.144,0.96624,-0.144l1.46088,0c0.22464,0,0.22464,0.2448,0.22464,0.3744c0,0.1296,-0.01512,0.3816,-0.22464,0.3816l-3.06,0c-0.10728,0,-0.2304,-0.1152,-0.2304,-0.22392C19.5566,1.21536,19.6286,1.08576,19.751,1.08576z" id="ReflexRight" fill="#FFFFFF"/>
 <circle xmlns="http://www.w3.org/2000/svg" opacity="0.35" cy="1.13616" cx="6.99984" id="ReflexLeft" fill="#FFFFFF" r="0.432"/>
 <rect xmlns="http://www.w3.org/2000/svg" opacity="0.5" y="0.42336" id="Reflex_gold" fill="#FFFF33" width="0.70272" height="1.62" x="22.019"/>
 <rect xmlns="http://www.w3.org/2000/svg" opacity="0.5" y="0.78336" id="Reflex_extra" fill="#FFFFFF" width="0.70272" height="0.7488" x="22.019"/>
</g>
</g></g><path stroke='#8c8c8c' stroke-width='2.15136' stroke-linecap='round' stroke-linejoin='round' fill='none' d='M232.099,63.3764L232.099,87.9925' />
<path stroke='#8c8c8c' stroke-width='2.15136' stroke-linecap='round' stroke-linejoin='round' fill='none' d='M224.897,63.3764L224.897,87.9925' />
<g partID='75720'><g transform='translate(220.37,34.1696)' ><g xmlns="http://www.w3.org/2000/svg" id="breadboard">
 <rect xmlns="http://www.w3.org/2000/svg" y="25.421" id="connector0pin" fill="none" width="2.15208" height="0.72" x="3.45096"/>
 <rect xmlns="http://www.w3.org/2000/svg" y="25.421" id="connector1pin" fill="none" width="2.15424" height="0.72" x="10.651"/>
 <g xmlns="http://www.w3.org/2000/svg" x2="6.287" y1="40.565" stroke="#8C8C8C" y2="74.754" stroke-linecap="round" id="connector0leg" fill="none" x1="6.287" stroke-width="2.15136"/>
 <g xmlns="http://www.w3.org/2000/svg" x2="16.29" y1="40.565" stroke="#8C8C8C" y2="74.754" stroke-linecap="round" id="connector1leg" fill="none" x1="16.29" stroke-width="2.15136"/>
 <rect xmlns="http://www.w3.org/2000/svg" y="19.3795" fill="#8C8C8C" width="2.15136" height="9.82728" x="3.45096"/>
 <path xmlns="http://www.w3.org/2000/svg" d="M12.8045,29.2068c0,-1.1736,-1.06488,-2.1024,-2.088,-2.9916c-0.41616,-0.3672,-1.19952,-1.00152,-1.19952,-1.42488l0,-5.47056l-2.16144,0l0,5.78016c0,1.0584,0.94752,1.87848,1.94616,2.74824c0.44424,0.37584,1.34856,1.24992,1.34856,1.76976" fill="#8C8C8C"/>
 <g xmlns="http://www.w3.org/2000/svg" id="g12">
  <path xmlns="http://www.w3.org/2000/svg" opacity="0.3" d="M14.1732,13.001L14.1732,7.0884C14.1732,3.1752,11.0052,0,7.08768,0C3.1752,0,0,3.16944,0,7.0884l0,13.649c1.47384,1.65096,4.0968,2.75256,7.08768,2.75256c4.61952,0,8.36856,-2.61792,8.36856,-5.85936l0,-1.52352C15.4555,14.9645,14.9818,13.9032,14.1732,13.001z" id="color_path14" fill="#ffffff"/>
  <path xmlns="http://www.w3.org/2000/svg" opacity="0.5" d="M14.1732,13.001L14.1732,7.0884C14.1732,3.1752,11.0052,0,7.08768,0C3.1752,0,0,3.16944,0,7.0884l0,13.649c1.47384,1.65096,4.0968,2.75256,7.08768,2.75256c4.61952,0,8.36856,-2.61792,8.36856,-5.85936l0,-1.52352C15.4555,14.9645,14.9818,13.9032,14.1732,13.001z" id="path16" fill="#E6E6E6"/>
  <path xmlns="http://www.w3.org/2000/svg" opacity="0.9" d="M14.1732,13.001l0,3.10536c0,2.73888,-3.16584,4.96512,-7.08552,4.96512C3.1752,21.0715,0,18.8525,0,16.1064l0,3.10536L0,20.736c1.47384,1.65168,4.0968,2.75256,7.08768,2.75256c4.61952,0,8.36856,-2.61792,8.36856,-5.85864L15.4562,16.1064C15.4555,14.9645,14.9818,13.9032,14.1732,13.001z" id="path18" fill="#D1D1D1"/>
  <path xmlns="http://www.w3.org/2000/svg" opacity="0.7" d="M14.1732,13.001l0,3.10536c0,2.73888,-3.16584,4.96512,-7.08552,4.96512C3.1752,21.0715,0,18.8525,0,16.1064l0,3.10536L0,20.736c1.47384,1.65168,4.0968,2.75256,7.08768,2.75256c4.61952,0,8.36856,-2.61792,8.36856,-5.85864L15.4562,16.1064C15.4555,14.9645,14.9818,13.9032,14.1732,13.001z" id="color_path20" fill="#ffffff"/>
  <path xmlns="http://www.w3.org/2000/svg" opacity="0.25" d="M14.1732,13.001l0,3.10536c0,2.73888,-3.16584,4.96512,-7.08552,4.96512C3.1752,21.0715,0,18.8525,0,16.1064l0,3.10536c1.47384,1.65024,4.0968,2.75256,7.08768,2.75256c4.61952,0,8.36856,-2.61792,8.36856,-5.85864C15.4555,14.9645,14.9818,13.9032,14.1732,13.001z" id="color_path22" fill="#ffffff"/>
  <ellipse xmlns="http://www.w3.org/2000/svg" opacity="0.25" cy="16.1064" ry="4.9608" cx="7.08768" rx="7.08696" id="ellipse24" fill="#E6E6E6"/>
  <ellipse xmlns="http://www.w3.org/2000/svg" opacity="0.25" cy="16.1064" ry="4.9608" cx="7.08768" rx="7.08696" id="color_ellipse26" fill="#ffffff"/>
  <polygon xmlns="http://www.w3.org/2000/svg" points="2.2032,9.648,2.2032,16.1071,3.19608,16.1071,3.19608,13.0946,6.0156,13.0946,10.0123,8.80488,3.40704,8.80488" id="polygon28" fill="#666666"/>
  <polygon xmlns="http://www.w3.org/2000/svg" points="10.7784,8.52408,11.2147,9.03384,7.41168,13.0946,11.0599,13.0946,11.0599,16.1071,11.9736,16.1071,11.9736,8.52408" id="polygon30" fill="#666666"/>
  <path xmlns="http://www.w3.org/2000/svg" opacity="0.65" d="M14.1732,13.001L14.1732,7.0884C14.1732,3.1752,11.0052,0,7.08768,0C3.1752,0,0,3.16944,0,7.0884l0,13.649c1.47384,1.65096,4.0968,2.75256,7.08768,2.75256c4.61952,0,8.36856,-2.61792,8.36856,-5.85936l0,-1.52352C15.4555,14.9645,14.9818,13.9032,14.1732,13.001z" id="color_path32" fill="#ffffff"/>
  <path xmlns="http://www.w3.org/2000/svg" opacity="0.5" d="M10.3882,3.75408l1.4364,-0.2736c-0.84168,-1.13184,-2.08224,-1.95768,-3.54168,-2.23848l0.25416,1.08072C9.30096,2.59344,9.94392,3.1032,10.3882,3.75408z" id="path34" fill="#FFFFFF"/>
  <path xmlns="http://www.w3.org/2000/svg" opacity="0.5" d="M0.76824,19.926l0,1.51992c0.64872,0.5292,1.43352,0.97632,2.3076,1.31688l0,-1.52496C2.19744,20.9016,1.41912,20.4559,0.76824,19.926z" id="path36" fill="#FFFFFF"/>
  <path xmlns="http://www.w3.org/2000/svg" opacity="0.5" d="M11.0729,20.2097c-0.2556,0.1224,-0.52992,0.22968,-0.80568,0.32976c-0.05832,0.01944,-0.11736,0.04032,-0.17784,0.05832c-0.56376,0.17928,-1.16136,0.31896,-1.79496,0.39456c-0.07488,0.00936,-0.1512,0.01872,-0.22464,0.01944c-0.3204,0.03024,-0.64368,0.05832,-0.97056,0.05832c-0.14832,0,-0.30744,-0.01512,-0.4716,-0.02376c-1.20024,-0.05688,-2.33064,-0.31464,-3.2976,-0.73944L3.33,11.9174L3.33,7.092c0,-1.47096,0.84816,-2.72952,2.0736,-3.34944L5.38128,3.68928l-1.24776,-1.512c-1.66968,1.00296,-2.79,2.8224,-2.79,4.91184l0,11.9052c-0.04968,-0.04968,-0.30816,-0.30888,-0.48024,-0.52992l-0.30744,0.6876c1.40112,1.48176,3.8088,2.46168,6.54264,2.46168c1.67976,0,3.23712,-0.37368,4.51152,-1.00224l-0.52704,-0.40896C11.0729,20.2097,11.0729,20.2097,11.0729,20.2097z" id="path38" fill="#FFFFFF"/>
 </g>
</g>
</g></g><path stroke='#8c8c8c' stroke-width='2.0952' stroke-linecap='round' stroke-linejoin='round' fill='none' d='M231.052,44.7925L232.099,44.7925' />
<path stroke='#8c8c8c' stroke-width='2.0952' stroke-linecap='round' stroke-linejoin='round' fill='none' d='M204.342,44.7925L203.294,44.7925' />
<g partID='76780'><g transform='translate(202.247,41.1601)' ><g xmlns="http://www.w3.org/2000/svg" id="breadboard">
 <rect xmlns="http://www.w3.org/2000/svg" y="2.5848" id="connector0pin" fill="none" width="0.72" height="0.72" x="0.36"/>
 <rect xmlns="http://www.w3.org/2000/svg" y="2.5848" id="connector1pin" fill="none" width="0.72" height="0.72" x="29.8202"/>
 <line xmlns="http://www.w3.org/2000/svg" x2="2.0952" y1="3.6324" stroke="#8C8C8C" y2="3.6324" stroke-linecap="round" id="connector0leg" fill="none" x1="1.0476" stroke-width="2.0952"/>
 <line xmlns="http://www.w3.org/2000/svg" x2="28.805" y1="3.6324" stroke="#8C8C8C" y2="3.6324" stroke-linecap="round" id="connector1leg" fill="none" x1="29.8526" stroke-width="2.0952"/>
 <path xmlns="http://www.w3.org/2000/svg" stroke="#8C8C8C" d="M1.0476,3.6324l28.3666,0" fill="none" stroke-width="2.0952"/>
 <path xmlns="http://www.w3.org/2000/svg" d="M10.2478,0.49536c-0.36,-0.1656,-0.9792,-0.2952,-1.3752,-0.2952l-1.9872,0c-0.396,0,-0.72,0.324,-0.72,0.72l0,5.35608c0,0.39672,0.324,0.72,0.72,0.72l1.9872,0c0.396,0,1.0152,-0.13608,1.3752,-0.2952l0.072,-0.03528c0.36,-0.1656,0.9792,-0.2952,1.3752,-0.2952l7.1856,0c0.39672,0,1.01448,0.13608,1.37448,0.2952l0.07272,0.03528c0.36,0.1656,0.97776,0.2952,1.3752,0.2952l1.9872,0c0.39744,0,0.72,-0.32328,0.72,-0.72L24.4102,0.92016c0,-0.396,-0.32256,-0.72,-0.72,-0.72l-1.9872,0c-0.39744,0,-1.0152,0.1368,-1.3752,0.2952l-0.07272,0.036c-0.36,0.1656,-0.97776,0.2952,-1.37448,0.2952l-7.1856,0c-0.396,0,-1.0152,-0.1368,-1.3752,-0.2952L10.2478,0.49536z" id="body" fill="#D9B477"/>
 <rect xmlns="http://www.w3.org/2000/svg" y="0.19368" id="gold_band" fill="#ad9f4e" width="0.70272" height="6.79536" x="22.019"/>
 <rect xmlns="http://www.w3.org/2000/svg" y="0.82656" id="band_rd_multiplier" fill="#ff4d00" width="1.8504" height="5.5368" x="16.1726"/>
 <rect xmlns="http://www.w3.org/2000/svg" y="0.82656" id="band_2_nd" fill="#000000" width="1.8504" height="5.5368" x="12.4726"/>
 <path xmlns="http://www.w3.org/2000/svg" d="M10.6286,0.63936c-0.1152,-0.036,-0.2232,-0.072,-0.3096,-0.1152l-0.072,-0.036c-0.36,-0.16488,-0.9792,-0.2952,-1.3752,-0.2952l-0.0864,0l0,6.79608l0.0864,0c0.396,0,1.0152,-0.13608,1.3752,-0.2952l0.072,-0.03528c0.0864,-0.04464,0.1944,-0.07992,0.3096,-0.1152L10.6286,0.63936z" id="band_1_st" fill="#8a3d06"/>
 <path xmlns="http://www.w3.org/2000/svg" opacity="0.3" d="M23.711,4.0896L23.711,4.0896c0,0.37944,-0.13032,0.69912,-0.2952,0.69912l-1.9224,0c-0.38016,0,-0.97776,-0.05616,-1.33272,-0.1224L20.088,4.65048c-0.34488,-0.0648,-0.94896,-0.1224,-1.33344,-0.1224L11.808,4.52808c-0.3816,0,-0.9792,0.0576,-1.332,0.1224l-0.072,0.01512c-0.3456,0.06552,-0.9432,0.1224,-1.332,0.1224l-0.3168,0l-1.0008,0l-0.3096,0c-0.3816,0,-0.6984,0.29376,-0.6984,0.64512l0,0.24696L6.7464,5.8392l0,0.1728c0,0.36,0.3168,0.64512,0.6984,0.64512l1.62,0c0.3816,0,0.9792,-0.1224,1.332,-0.26712l0.072,-0.02808c0.3456,-0.14112,0.9504,-0.26496,1.332,-0.26496l6.94656,0c0.37944,0,0.97704,0.12384,1.33416,0.26568l0.07416,0.02808c0.34488,0.14472,0.94464,0.26712,1.33344,0.26712l2.2248,0c0.38088,0,0.69912,-0.2952,0.69912,-0.64512L24.413,5.472L24.413,4.49928L24.413,2.65536C24.1358,2.76336,23.711,3.06576,23.711,4.0896z" id="Shadow"/>
 <rect xmlns="http://www.w3.org/2000/svg" opacity="0.4" y="3.48336" id="ShadowExtra" width="0.70272" height="3.15288" x="22.019"/>
 <path xmlns="http://www.w3.org/2000/svg" opacity="0.25" d="M19.751,1.08576c0.22968,0,0.49104,-0.1008,0.6624,-0.1728c0.2016,-0.0792,0.57672,-0.144,0.96624,-0.144l1.46088,0c0.22464,0,0.22464,0.2448,0.22464,0.3744c0,0.1296,-0.01512,0.3816,-0.22464,0.3816l-3.06,0c-0.10728,0,-0.2304,-0.1152,-0.2304,-0.22392C19.5566,1.21536,19.6286,1.08576,19.751,1.08576z" id="ReflexRight" fill="#FFFFFF"/>
 <circle xmlns="http://www.w3.org/2000/svg" opacity="0.35" cy="1.13616" cx="6.99984" id="ReflexLeft" fill="#FFFFFF" r="0.432"/>
 <rect xmlns="http://www.w3.org/2000/svg" opacity="0.5" y="0.42336" id="Reflex_gold" fill="#FFFF33" width="0.70272" height="1.62" x="22.019"/>
 <rect xmlns="http://www.w3.org/2000/svg" opacity="0.5" y="0.78336" id="Reflex_extra" fill="#FFFFFF" width="0.70272" height="0.7488" x="22.019"/>
</g>
</g></g><g partID='77570'><g transform='translate(73.4842,0)' ><g  id="breadboard">
 <rect  y="0.583" width="1.517" fill="#0E0E0E" id="0.1.0" height="0.647" x="13.858"/>
 <g  id="0.1.1">
  <polygon  points="6.879,58.632,7.955,58.632,7.955,59.749,6.879,59.749" fill="none" id="connector0pin"/>
  <polygon  points="6.864,59.196,7.952,59.196,7.957,59.751,6.858,59.751" fill="none" id="connector0terminal"/>
  <polygon  points="14.054,58.636,15.176,58.636,15.17,59.749,14.059,59.749" fill="none" id="connector1pin"/>
  <polygon  points="14.042,59.196,15.188,59.196,15.198,59.751,14.033,59.751" fill="none" id="connector1terminal"/>
  <polygon  points="21.283,58.632,22.36,58.632,22.35,59.749,21.289,59.749" fill="none" id="connector2pin"/>
  <polygon  points="21.285,59.196,22.356,59.196,22.362,59.751,21.28,59.751" fill="none" id="connector2terminal"/>
 </g>
 <g transform="matrix(1, 0, 0, 1, 100, 144.521)">
  <g  id="0.1.2">
   <g  id="0.1.2">
    <g  id="0.1.2.0">
     <g  id="0.1.2">
      <g transform="matrix(1, 0, 0, 1, 1388.89, 1968.75)">
       <g  id="0.1.2.0.0.0.0">
        <g  id="0.1.2.0.0.0">
         <g  id="0.1.2.0.0.0.0">
          <g  id="0.1.2.0">
           <g  id="0.1.2.0.0">
            <path  d="M-1461.32,-2058.48c0,1.418,-1.154,2.566,-2.574,2.566l-20.82,0c-1.426,0,-2.578,-1.15,-2.578,-2.566l0,-28.688c0,-1.417,1.152,-2.569,2.578,-2.569l20.817,0c1.425,0,2.573,1.152,2.573,2.569l0,28.688L-1461.32,-2058.48z" fill="#0A0A0A" id="0.1.2.0.0.0"/>
            <path  d="M-1461.32,-2063.17c0,1.422,-1.152,2.572,-2.575,2.572l-20.807,0c-1.423,0,-2.576,-1.15,-2.576,-2.572l0,-28.75c0,-1.423,1.152,-2.574,2.576,-2.574l20.809,0c1.423,0,2.573,1.152,2.573,2.574L-1461.32,-2063.17L-1461.32,-2063.17z" fill="#1A1A1A" id="0.1.2.0.0.1"/>
            <path  d="M-1461.32,-2064.29c0,1.422,-1.152,2.574,-2.575,2.574l-20.807,0c-1.423,0,-2.576,-1.15,-2.576,-2.574l0,-27.63c0,-1.423,1.152,-2.574,2.576,-2.574l20.809,0c1.423,0,2.573,1.154,2.573,2.574L-1461.32,-2064.29L-1461.32,-2064.29z" fill="#ABABAB" id="0.1.2.0.0.2"/>
            <path  d="M-1487.28,-2091.74c0,-1.42,1.154,-2.574,2.578,-2.574l20.809,0c1.421,0,2.573,1.151,2.573,2.574l0,-0.173c0,-1.421,-1.152,-2.574,-2.573,-2.574l-20.809,0c-1.423,0,-2.578,1.15,-2.578,2.574L-1487.28,-2091.74z" fill="#CCCCCC" id="0.1.2.0.0.3"/>
            <path  d="M-1461.32,-2064.46c0,1.42,-1.15,2.572,-2.573,2.572l-20.809,0c-1.422,0,-2.576,-1.15,-2.576,-2.572l0,0.174c0,1.422,1.153,2.574,2.576,2.574l20.809,0c1.423,0,2.573,-1.15,2.573,-2.574L-1461.32,-2064.46z" fill="#666666" id="0.1.2.0.0.4"/>
            <path  d="M-1463.98,-2066.3c0.980001,0,1.774,0.795,1.774,1.773c0,0.977,-0.794,1.77,-1.774,1.77c-0.977001,0,-1.771,-0.793,-1.771,-1.77C-1465.75,-2065.51,-1464.96,-2066.3,-1463.98,-2066.3z" id="0.1.2.0.0.5"/>
            <circle  cy="-2064.53" cx="-1484.62" r="1.771" id="0.1.2.0.0.6"/>
            <circle  cy="-2091.82" cx="-1463.98" r="1.772" id="0.1.2.0.0.7"/>
            <circle  cy="-2091.82" cx="-1484.62" r="1.772" id="0.1.2.0.0.8"/>
            <path  d="M-1463.98,-2066.23c0.787,0,1.42,0.637,1.42,1.42s-0.633,1.418,-1.42,1.418c-0.78,0,-1.418,-0.635,-1.418,-1.418S-1464.76,-2066.23,-1463.98,-2066.23z" fill="#0D0D0D" id="0.1.2.0.0.9"/>
            <circle  cy="-2064.82" cx="-1484.62" fill="#0D0D0D" r="1.419" id="0.1.2.0.0.10"/>
            <circle  cy="-2092.1" cx="-1463.98" fill="#0D0D0D" r="1.418" id="0.1.2.0.0.11"/>
            <circle  cy="-2092.1" cx="-1484.62" fill="#0D0D0D" r="1.418" id="0.1.2.0.0.12"/>
            <path  d="M-1480.67,-2077.58c0.276,-3.271,3.046,-5.848,6.392,-5.848c3.347,0,6.117,2.576,6.392,5.848l0,-5.246c-0.277,-3.275,-3.096,-15.334,-6.44,-15.334c-3.347,0,-6.066,12.061,-6.343,15.334L-1480.67,-2077.58z" fill="#666666" id="0.1.2.0.0.13"/>
            <circle  cy="-2077.87" cx="-1474.3" fill="#666666" r="6.81" id="0.1.2.0.0.14"/>
            <circle  cy="-2077.87" cx="-1474.3" r="6.551" id="0.1.2.0.0.15"/>
            <polygon  opacity="0.7" points="-1467.94,-2107.79,-1467.94,-2108.71,-1468.24,-2108.82,-1468.24,-2109.66,-1468.71,-2109.76,-1468.71,-2110.54,-1469.36,-2110.57,-1469.36,-2111.35,-1470.16,-2111.26,-1470.16,-2112.04,-1471.04,-2111.81,-1471.08,-2112.6,-1471.9,-2112.24,-1472.11,-2113.02,-1472.84,-2112.54,-1473.2,-2113.27,-1473.83,-2112.69,-1473.83,-2112.69,-1473.93,-2107.73,-1474.94,-2107.75,-1474.84,-2112.69,-1475.46,-2113.27,-1475.81,-2112.54,-1476.55,-2113.02,-1476.75,-2112.24,-1477.57,-2112.6,-1477.62,-2111.81,-1478.5,-2112.04,-1478.5,-2111.26,-1479.29,-2111.35,-1479.29,-2110.57,-1479.95,-2110.54,-1479.95,-2109.76,-1480.43,-2109.66,-1480.43,-2108.82,-1480.72,-2108.71,-1480.72,-2107.8,-1480.82,-2107.74,-1480.82,-2097.88,-1480.72,-2097.83,-1480.72,-2096.9,-1480.43,-2096.8,-1480.43,-2095.96,-1479.95,-2095.87,-1479.95,-2095.07,-1479.3,-2095.04,-1479.3,-2094.27,-1478.5,-2094.36,-1478.5,-2093.58,-1477.62,-2093.81,-1477.58,-2093.01,-1476.75,-2093.38,-1476.55,-2092.6,-1475.81,-2093.08,-1475.46,-2092.35,-1474.83,-2092.93,-1474.33,-2092.26,-1473.83,-2092.93,-1473.2,-2092.35,-1472.84,-2093.08,-1472.11,-2092.6,-1471.91,-2093.38,-1471.08,-2093.01,-1471.04,-2093.81,-1470.16,-2093.58,-1470.16,-2094.36,-1469.36,-2094.27,-1469.36,-2095.04,-1468.71,-2095.07,-1468.71,-2095.87,-1468.24,-2095.96,-1468.24,-2096.8,-1467.94,-2096.9,-1467.94,-2097.83,-1467.85,-2097.88,-1467.85,-2107.74" id="0.1.2.0.0.16"/>
            <path  d="M-1467.94,-2097.11l0,-10.573l0.0930001,-0.053l-0.77,-0.433l0.677,-0.539l-0.851,-0.311l0.552,-0.64l-0.893,-0.176l0.418,-0.708l-0.919001,-0.042l0.272,-0.762l-0.915001,0.1l0.117,-0.792l-0.887,0.235l-0.042,-0.796l-0.819,0.363l-0.209,-0.781l-0.73,0.48l-0.358,-0.731l-0.627,0.583l-1.007,0l-0.625,-0.583l-0.354,0.731l-0.734,-0.48l-0.204,0.781l-0.817,-0.363l-0.047,0.796l-0.879,-0.235l0.115,0.792l-0.913001,-0.1l0.268,0.762l-0.919001,0.042l0.418,0.708l-0.898,0.176l0.554,0.64l-0.846,0.311l0.671,0.539l-0.773,0.433l0.149,0.083l0,0.859l-0.047,0.038l0.047,0.017l0,9.643l0,0.848l0,18.934c0.275,3.271,3.045,5.85,6.391,5.85c3.349,0,6.119,-2.578,6.392,-5.85l0,-19.796l-0.046,0L-1467.94,-2097.11z" fill="#060606" id="0.1.2.0.0.17"/>
            <g  id="0.1.2.0.0.18">
             <g  id="0.1.2.0.0.18.0">
              <g  id="0.1.2.0.0.18.0.0">
               <g  id="0.1.2.0.0.18.0.0.0">
                <g  opacity="0.8" id="0.1.2.0.0.18.0.0.0.0">
                 <polygon  points="-1470.16,-2112.04,-1470.16,-2102.8,-1470.27,-2102.01,-1470.27,-2111.25" fill="#1A1A1A" id="0.1.2.0.0.18.0.0.0.0.0"/>
                </g>
                <g  opacity="0.8" id="0.1.2.0.0.18.0.0.0.1">
                 <polygon  points="-1478.38,-2111.25,-1478.38,-2102.01,-1478.5,-2102.8,-1478.5,-2112.04" fill="#1A1A1A" id="0.1.2.0.0.18.0.0.0.1.0"/>
                </g>
                <g  opacity="0.8" id="0.1.2.0.0.18.0.0.0.2">
                 <polygon  points="-1479.03,-2110.59,-1479.03,-2101.35,-1479.29,-2102.11,-1479.29,-2111.35" fill="#1A1A1A" id="0.1.2.0.0.18.0.0.0.2.0"/>
                </g>
                <g  opacity="0.8" id="0.1.2.0.0.18.0.0.0.3">
                 <polygon  points="-1469.36,-2111.35,-1469.36,-2102.11,-1469.63,-2101.35,-1469.63,-2110.59" fill="#1A1A1A" id="0.1.2.0.0.18.0.0.0.3.0"/>
                </g>
                <g  opacity="0.8" id="0.1.2.0.0.18.0.0.0.4">
                 <polygon  points="-1479.53,-2109.84,-1479.53,-2100.6,-1479.95,-2101.31,-1479.95,-2110.54" fill="#1A1A1A" id="0.1.2.0.0.18.0.0.0.4.0"/>
                </g>
                <g  opacity="0.8" id="0.1.2.0.0.18.0.0.0.5">
                 <polygon  points="-1468.71,-2110.54,-1468.71,-2101.31,-1469.13,-2100.6,-1469.13,-2109.84" fill="#1A1A1A" id="0.1.2.0.0.18.0.0.0.5.0"/>
                </g>
                <g  opacity="0.8" id="0.1.2.0.0.18.0.0.0.6">
                 <polygon  points="-1468.24,-2109.66,-1468.24,-2100.42,-1468.79,-2099.43,-1468.79,-2109.02" fill="#1A1A1A" id="0.1.2.0.0.18.0.0.0.6.0"/>
                </g>
                <g  opacity="0.8" id="0.1.2.0.0.18.0.0.0.7">
                 <polygon  points="-1479.87,-2109.02,-1479.87,-2099.43,-1480.43,-2100.42,-1480.43,-2109.66" fill="#1A1A1A" id="0.1.2.0.0.18.0.0.0.7.0"/>
                </g>
                <g  opacity="0.8" id="0.1.2.0.0.18.0.0.0.8">
                 <polygon  points="-1467.94,-2108.71,-1467.94,-2099.12,-1468.61,-2098.58,-1468.61,-2108.17" fill="#1A1A1A" id="0.1.2.0.0.18.0.0.0.8.0"/>
                </g>
                <g  opacity="0.8" id="0.1.2.0.0.18.0.0.0.9">
                 <polygon  points="-1480.05,-2108.17,-1480.05,-2098.58,-1480.72,-2099.12,-1480.72,-2108.71" fill="#1A1A1A" id="0.1.2.0.0.18.0.0.0.9.0"/>
                </g>
                <g  opacity="0.8" id="0.1.2.0.0.18.0.0.0.10">
                 <polygon  points="-1467.85,-2107.74,-1467.85,-2098.15,-1468.61,-2097.71,-1468.61,-2107.31" fill="#1A1A1A" id="0.1.2.0.0.18.0.0.0.10.0"/>
                </g>
                <g  opacity="0.8" id="0.1.2.0.0.18.0.0.0.11">
                 <polygon  points="-1480.05,-2107.31,-1480.05,-2097.71,-1480.82,-2098.15,-1480.82,-2107.74" fill="#1A1A1A" id="0.1.2.0.0.18.0.0.0.11.0"/>
                </g>
                <g  opacity="0.8" id="0.1.2.0.0.18.0.0.0.12">
                 <polygon  points="-1479.87,-2106.45,-1479.87,-2096.86,-1480.72,-2097.17,-1480.72,-2106.76" fill="#1A1A1A" id="0.1.2.0.0.18.0.0.0.12.0"/>
                </g>
                <g  opacity="0.8" id="0.1.2.0.0.18.0.0.0.13">
                 <polygon  points="-1467.94,-2106.76,-1467.94,-2097.17,-1468.79,-2096.86,-1468.79,-2106.45" fill="#1A1A1A" id="0.1.2.0.0.18.0.0.0.13.0"/>
                </g>
                <g  opacity="0.8" id="0.1.2.0.0.18.0.0.0.14">
                 <polygon  points="-1468.24,-2105.82,-1468.24,-2096.22,-1469.13,-2096.04,-1469.13,-2105.64" fill="#1A1A1A" id="0.1.2.0.0.18.0.0.0.14.0"/>
                </g>
                <g  opacity="0.8" id="0.1.2.0.0.18.0.0.0.15">
                 <polygon  points="-1479.53,-2105.64,-1479.53,-2096.04,-1480.43,-2096.22,-1480.43,-2105.82" fill="#1A1A1A" id="0.1.2.0.0.18.0.0.0.15.0"/>
                </g>
                <g  opacity="0.8" id="0.1.2.0.0.18.0.0.0.16">
                 <polygon  points="-1479.03,-2104.89,-1479.03,-2095.29,-1479.95,-2095.33,-1479.95,-2104.93" fill="#1A1A1A" id="0.1.2.0.0.18.0.0.0.16.0"/>
                </g>
                <g  opacity="0.8" id="0.1.2.0.0.18.0.0.0.17">
                 <polygon  points="-1468.71,-2104.93,-1468.71,-2095.33,-1469.63,-2095.29,-1469.63,-2104.89" fill="#1A1A1A" id="0.1.2.0.0.18.0.0.0.17.0"/>
                </g>
                <g  opacity="0.8" id="0.1.2.0.0.18.0.0.0.18">
                 <polygon  points="-1478.38,-2104.22,-1478.38,-2094.63,-1479.3,-2094.53,-1479.3,-2104.12" fill="#1A1A1A" id="0.1.2.0.0.18.0.0.0.18.0"/>
                </g>
                <g  opacity="0.8" id="0.1.2.0.0.18.0.0.0.19">
                 <polygon  points="-1469.36,-2104.12,-1469.36,-2094.53,-1470.27,-2094.63,-1470.27,-2104.22" fill="#1A1A1A" id="0.1.2.0.0.18.0.0.0.19.0"/>
                </g>
                <g  opacity="0.8" id="0.1.2.0.0.18.0.0.0.20">
                 <polygon  points="-1470.16,-2103.43,-1470.16,-2093.84,-1471.04,-2094.07,-1471.04,-2103.67" fill="#1A1A1A" id="0.1.2.0.0.18.0.0.0.20.0"/>
                </g>
                <g  opacity="0.8" id="0.1.2.0.0.18.0.0.0.21">
                 <polygon  points="-1477.62,-2103.67,-1477.62,-2094.07,-1478.5,-2093.84,-1478.5,-2103.43" fill="#1A1A1A" id="0.1.2.0.0.18.0.0.0.21.0"/>
                </g>
                <g  opacity="0.8" id="0.1.2.0.0.18.0.0.0.22">
                 <polygon  points="-1477.58,-2102.87,-1477.58,-2093.28,-1477.62,-2094.07,-1477.62,-2103.67" fill="#1A1A1A" id="0.1.2.0.0.18.0.0.0.22.0"/>
                </g>
                <g  opacity="0.8" id="0.1.2.0.0.18.0.0.0.23">
                 <polygon  points="-1471.04,-2103.67,-1471.04,-2094.07,-1471.08,-2093.28,-1471.08,-2102.87" fill="#1A1A1A" id="0.1.2.0.0.18.0.0.0.23.0"/>
                </g>
                <g  opacity="0.8" id="0.1.2.0.0.18.0.0.0.24">
                 <polygon  points="-1476.75,-2103.23,-1476.75,-2093.64,-1477.58,-2093.28,-1477.58,-2102.87" fill="#1A1A1A" id="0.1.2.0.0.18.0.0.0.24.0"/>
                </g>
                <g  opacity="0.8" id="0.1.2.0.0.18.0.0.0.25">
                 <polygon  points="-1471.08,-2102.87,-1471.08,-2093.28,-1471.91,-2093.64,-1471.91,-2103.23" fill="#1A1A1A" id="0.1.2.0.0.18.0.0.0.25.0"/>
                </g>
                <g  opacity="0.8" id="0.1.2.0.0.18.0.0.0.26">
                 <polygon  points="-1476.55,-2102.46,-1476.55,-2092.86,-1476.75,-2093.64,-1476.75,-2103.23" fill="#1A1A1A" id="0.1.2.0.0.18.0.0.0.26.0"/>
                </g>
                <g  opacity="0.8" id="0.1.2.0.0.18.0.0.0.27">
                 <polygon  points="-1475.81,-2102.94,-1475.81,-2093.35,-1476.55,-2092.86,-1476.55,-2102.46" fill="#1A1A1A" id="0.1.2.0.0.18.0.0.0.27.0"/>
                </g>
                <g  opacity="0.8" id="0.1.2.0.0.18.0.0.0.28">
                 <polygon  points="-1472.11,-2102.46,-1472.11,-2092.86,-1472.84,-2093.35,-1472.84,-2102.94" fill="#1A1A1A" id="0.1.2.0.0.18.0.0.0.28.0"/>
                </g>
                <g  opacity="0.8" id="0.1.2.0.0.18.0.0.0.29">
                 <polygon  points="-1471.91,-2103.23,-1471.91,-2093.64,-1472.11,-2092.86,-1472.11,-2102.46" fill="#1A1A1A" id="0.1.2.0.0.18.0.0.0.29.0"/>
                </g>
                <g  opacity="0.8" id="0.1.2.0.0.18.0.0.0.30">
                 <polygon  points="-1474.83,-2102.79,-1474.83,-2093.2,-1475.46,-2092.61,-1475.46,-2102.2" fill="#1A1A1A" id="0.1.2.0.0.18.0.0.0.30.0"/>
                </g>
                <g  opacity="0.8" id="0.1.2.0.0.18.0.0.0.31">
                 <polygon  points="-1473.2,-2102.2,-1473.2,-2092.61,-1473.83,-2093.2,-1473.83,-2102.79" fill="#1A1A1A" id="0.1.2.0.0.18.0.0.0.31.0"/>
                </g>
                <g  opacity="0.8" id="0.1.2.0.0.18.0.0.0.32">
                 <polygon  points="-1472.84,-2102.94,-1472.84,-2093.35,-1473.2,-2092.61,-1473.2,-2102.2" fill="#1A1A1A" id="0.1.2.0.0.18.0.0.0.32.0"/>
                </g>
                <g  opacity="0.8" id="0.1.2.0.0.18.0.0.0.33">
                 <polygon  points="-1475.46,-2102.2,-1475.46,-2092.61,-1475.81,-2093.35,-1475.81,-2102.94" fill="#1A1A1A" id="0.1.2.0.0.18.0.0.0.33.0"/>
                </g>
                <g  opacity="0.8" id="0.1.2.0.0.18.0.0.0.34">
                 <polygon  points="-1473.83,-2102.79,-1473.83,-2093.2,-1474.33,-2092.53,-1474.33,-2102.12" fill="#1A1A1A" id="0.1.2.0.0.18.0.0.0.34.0"/>
                </g>
                <g  opacity="0.8" id="0.1.2.0.0.18.0.0.0.35">
                 <polygon  points="-1474.33,-2102.12,-1474.33,-2092.53,-1474.83,-2093.2,-1474.83,-2102.79" fill="#1A1A1A" id="0.1.2.0.0.18.0.0.0.35.0"/>
                </g>
                <polygon  points="-1468.61,-2107.31,-1467.85,-2107.74,-1468.61,-2108.17,-1467.94,-2108.71,-1468.79,-2109.02,-1468.24,-2109.66,-1469.13,-2109.84,-1468.71,-2110.54,-1469.63,-2110.59,-1469.36,-2111.35,-1470.27,-2111.25,-1470.16,-2112.04,-1471.04,-2111.81,-1471.08,-2112.6,-1471.9,-2112.24,-1472.11,-2113.02,-1472.84,-2112.54,-1473.2,-2113.27,-1473.83,-2112.69,-1473.83,-2112.69,-1473.93,-2107.73,-1474.94,-2107.75,-1474.84,-2112.69,-1475.46,-2113.27,-1475.81,-2112.54,-1476.55,-2113.02,-1476.75,-2112.24,-1477.57,-2112.6,-1477.62,-2111.81,-1478.5,-2112.04,-1478.38,-2111.25,-1479.29,-2111.35,-1479.03,-2110.59,-1479.95,-2110.54,-1479.53,-2109.84,-1480.43,-2109.66,-1479.87,-2109.02,-1480.72,-2108.71,-1480.05,-2108.17,-1480.82,-2107.74,-1480.05,-2107.31,-1480.72,-2106.76,-1479.87,-2106.45,-1480.43,-2105.82,-1479.53,-2105.64,-1479.95,-2104.93,-1479.03,-2104.89,-1479.3,-2104.12,-1478.38,-2104.22,-1478.5,-2103.43,-1477.62,-2103.67,-1477.58,-2102.87,-1476.75,-2103.23,-1476.55,-2102.46,-1475.81,-2102.94,-1475.46,-2102.2,-1474.83,-2102.79,-1474.33,-2102.12,-1473.83,-2102.79,-1473.2,-2102.2,-1472.84,-2102.94,-1472.11,-2102.46,-1471.91,-2103.23,-1471.08,-2102.87,-1471.04,-2103.67,-1470.16,-2103.43,-1470.27,-2104.22,-1469.36,-2104.12,-1469.63,-2104.89,-1468.71,-2104.93,-1469.13,-2105.64,-1468.24,-2105.82,-1468.79,-2106.45,-1467.94,-2106.76" fill="#1A1A1A" id="0.1.2.0.0.18.0.0.0.36"/>
               </g>
              </g>
             </g>
            </g>
            <rect  y="-2060.14" width="10.742" fill="#1A1A1A" id="0.1.2.0.0.19" height="1.209" x="-1479.63"/>
            <rect  y="-2061.71" width="10.742" fill="#0E0E0E" id="0.1.2.0.0.20" height="1.576" x="-1479.63"/>
           </g>
          </g>
         </g>
        </g>
       </g>
      </g>
     </g>
    </g>
   </g>
  </g>
 </g>
 <ellipse  cy="5.531" ry="4.507" cx="14.455" rx="5.515" fill="#0E0E0E" id="0.1.3"/>
 <g  id="0.1.4">
  <path  d="M14.956,5.542l0.091,-4.468c-0.196,-0.018,-0.39,-0.05,-0.592,-0.05c-0.141,0,-0.271,0.025,-0.411,0.033l-0.09,4.462L14.956,5.542z" id="0.1.4.0"/>
 </g>
 <g  id="0.1.5">
  <g  id="breadboard_1_">
   <rect  y="58.37" width="1.191" fill="#8C8C8C" id="0.1.5.0.0" height="1.381" x="21.225"/>
   <rect  y="58.37" width="1.191" fill="#8C8C8C" id="0.1.5.0.1" height="1.381" x="14.02"/>
   <rect  y="58.37" width="1.19" fill="#8C8C8C" id="0.1.5.0.2" height="1.381" x="6.823"/>
  </g>
  <g  id="breadboard">
   <g  id="0.1.5.1.0">
    <path  d="M20.615,56.093c0,-0.084,0.07,-0.154,0.154,-0.154l2.104,0c0.084,0,0.152,0.07,0.152,0.154l0,2.303c0,0.084,-0.068,0.154,-0.152,0.154L20.77,58.55c-0.084,0,-0.154,-0.07,-0.154,-0.154L20.616,56.093z" fill="#8C8C8C" id="0.1.5.1.0.0"/>
   </g>
   <g  id="0.1.5.1.1">
    <path  d="M13.412,56.093c0,-0.084,0.068,-0.154,0.152,-0.154l2.104,0c0.084,0,0.152,0.07,0.152,0.154l0,2.303c0,0.084,-0.068,0.154,-0.152,0.154l-2.104,0c-0.084,0,-0.152,-0.07,-0.152,-0.154L13.412,56.093z" fill="#8C8C8C" id="0.1.5.1.1.0"/>
   </g>
   <g  id="0.1.5.1.2">
    <path  d="M6.211,56.093c0,-0.084,0.069,-0.154,0.153,-0.154l2.104,0c0.084,0,0.153,0.07,0.153,0.154l0,2.303c0,0.084,-0.069,0.154,-0.153,0.154L6.364,58.55c-0.084,0,-0.153,-0.07,-0.153,-0.154L6.211,56.093z" fill="#8C8C8C" id="0.1.5.1.2.0"/>
   </g>
  </g>
  <g  opacity="0.2" id="breadboard_3_">
   <rect  y="55.938" width="2.41" id="0.1.5.2.0" height="0.164" x="20.615"/>
   <rect  y="55.938" width="2.408" id="0.1.5.2.1" height="0.164" x="13.412"/>
   <rect  y="55.938" width="2.409" id="0.1.5.2.2" height="0.164" x="6.211"/>
  </g>
  <g  id="breadboard_4_">
   <rect  y="55.772" width="2.41" id="0.1.5.3.0" height="0.166" x="20.615"/>
   <rect  y="55.772" width="2.408" id="0.1.5.3.1" height="0.166" x="13.412"/>
   <rect  y="55.772" width="2.409" id="0.1.5.3.2" height="0.166" x="6.211"/>
  </g>
  <g  id="0.1.5.4">
   <path  d="M7.736,59.462c0,0.098,-0.0940001,0.18,-0.21,0.18L7.305,59.642c-0.116,0,-0.21,-0.082,-0.21,-0.18l0,-1.475c0,-0.098,0.0940001,-0.18,0.21,-0.18l0.221,0c0.116,0,0.21,0.082,0.21,0.18L7.736,59.462z" fill="#808080" id="0.1.5.4.0"/>
   <path  opacity="0.1" d="M7.736,58.124c0,-0.115,-0.0940001,-0.211,-0.21,-0.211L7.305,57.913c-0.116,0,-0.21,0.096,-0.21,0.211l0,-0.105c0,-0.115,0.0940001,-0.211,0.21,-0.211l0.221,0c0.116,0,0.21,0.096,0.21,0.211L7.736,58.124z" id="0.1.5.4.1"/>
   <path  opacity="0.15" d="M7.095,59.372c0,0.098,0.0940001,0.18,0.21,0.18l0.221,0c0.116,0,0.21,-0.082,0.21,-0.18l0,0.09c0,0.098,-0.0940001,0.18,-0.21,0.18L7.305,59.642c-0.116,0,-0.21,-0.082,-0.21,-0.18L7.095,59.372z" fill="#FFFFFF" id="0.1.5.4.2"/>
  </g>
  <g  id="0.1.5.5">
   <path  d="M14.936,59.462c0,0.098,-0.0940001,0.18,-0.211,0.18l-0.221,0c-0.115,0,-0.209,-0.082,-0.209,-0.18l0,-1.475c0,-0.098,0.0940001,-0.18,0.209,-0.18l0.221,0c0.117,0,0.211,0.082,0.211,0.18L14.936,59.462z" fill="#808080" id="0.1.5.5.0"/>
   <path  opacity="0.1" d="M14.936,58.124c0,-0.115,-0.0940001,-0.211,-0.211,-0.211l-0.221,0c-0.115,0,-0.209,0.096,-0.209,0.211l0,-0.105c0,-0.115,0.0940001,-0.211,0.209,-0.211l0.221,0c0.117,0,0.211,0.096,0.211,0.211L14.936,58.124z" id="0.1.5.5.1"/>
   <path  opacity="0.15" d="M14.295,59.372c0,0.098,0.0940001,0.18,0.209,0.18l0.221,0c0.117,0,0.211,-0.082,0.211,-0.18l0,0.09c0,0.098,-0.0940001,0.18,-0.211,0.18l-0.221,0c-0.115,0,-0.209,-0.082,-0.209,-0.18L14.295,59.372z" fill="#FFFFFF" id="0.1.5.5.2"/>
  </g>
  <g  id="0.1.5.6">
   <path  d="M22.141,59.462c0,0.098,-0.0940001,0.18,-0.209,0.18l-0.221,0c-0.115,0,-0.211,-0.082,-0.211,-0.18l0,-1.475c0,-0.098,0.0960001,-0.18,0.211,-0.18l0.221,0c0.115,0,0.209,0.082,0.209,0.18L22.141,59.462z" fill="#808080" id="0.1.5.6.0"/>
   <path  opacity="0.1" d="M22.141,58.124c0,-0.115,-0.0940001,-0.211,-0.209,-0.211l-0.221,0c-0.115,0,-0.211,0.096,-0.211,0.211l0,-0.105c0,-0.115,0.0960001,-0.211,0.211,-0.211l0.221,0c0.115,0,0.209,0.096,0.209,0.211L22.141,58.124z" id="0.1.5.6.1"/>
   <path  opacity="0.15" d="M21.5,59.372c0,0.098,0.0960001,0.18,0.211,0.18l0.221,0c0.115,0,0.209,-0.082,0.209,-0.18l0,0.09c0,0.098,-0.0940001,0.18,-0.209,0.18l-0.221,0c-0.115,0,-0.211,-0.082,-0.211,-0.18L21.5,59.372z" fill="#FFFFFF" id="0.1.5.6.2"/>
  </g>
 </g>
 <g  id="0.1.6">
  <polygon  points="8.462,17.098,8.535,17.114,8.535,17.016" fill="none" id="0.1.6.0"/>
  <path  d="M8.462,17.098l0.073,-0.083l0,-0.082l0.072,0l0.413,-0.469l-0.801,-0.297l0,19.937c0.042,0.506,0.163,0.984,0.318,1.451L8.537,17.114L8.462,17.098z" fill="none" id="0.1.6.1"/>
  <path  d="M20.952,16.156l-0.851,0.311l0.552,0.632l-0.893,0.182l0.42,0.708L19.26,18.03l0.271,0.762l-0.913001,-0.098l0.108,0.791l-0.88,-0.236l-0.04,0.797l-0.187,-0.082l0,21.211c1.862,-0.998,3.195,-2.865,3.378,-5.07L20.997,16.156L20.952,16.156z" fill="#0F0F0F" id="0.1.6.2"/>
  <path  opacity="0.2" d="M16.98,19.684l-0.2,0.779l-0.732,-0.485l-0.281,0.571l0,21.295c0.662,-0.119,1.277,-0.361,1.854,-0.668L17.621,19.965L16.98,19.684z" fill="#202020" id="0.1.6.3"/>
  <polygon  opacity="0.2" points="8.535,17.016,8.607,16.935,8.535,16.935" fill="#202020" id="0.1.6.4"/>
  <path  opacity="0.2" d="M11.723,41.239L11.723,19.866l-0.413,0.183l-0.041,-0.799l-0.878,0.235l0.115,-0.791l-0.920001,0.099l0.27,-0.761L8.942,17.99l0.413,-0.709l-0.819,-0.167l0,20.443C9.069,39.167,10.228,40.479,11.723,41.239z" fill="#202020" id="0.1.6.5"/>
  <path  opacity="0.2" d="M13.074,19.978l-0.736,0.485l-0.203,-0.779l-0.412,0.182l0,21.374c0.455,0.23,0.934001,0.418,1.439,0.533L13.162,20.163L13.074,19.978z" fill="#202020" id="0.1.6.6"/>
  <path  opacity="0.2" d="M13.074,19.978l-0.736,0.485l-0.203,-0.779l-0.412,0.182l0,21.374c0.455,0.23,0.934001,0.418,1.439,0.533L13.162,20.163L13.074,19.978z" fill="#353535" id="0.1.6.7"/>
  <path  opacity="0.2" d="M15.056,20.129l-0.502,0.668l-0.227,-0.303l0,21.432c0.0930001,0.008,0.186,0.029,0.279,0.029c0.396,0,0.783,-0.043,1.157,-0.113L15.763,20.549l-0.082,0.165L15.056,20.129z" fill="#202020" id="0.1.6.8"/>
  <path  opacity="0.2" d="M15.056,20.129l-0.502,0.668l-0.227,-0.303l0,21.432c0.0930001,0.008,0.186,0.029,0.279,0.029c0.396,0,0.783,-0.043,1.157,-0.113L15.763,20.549l-0.082,0.165L15.056,20.129z" fill="#353535" id="0.1.6.9"/>
  <path  opacity="0.2" d="M14.053,20.129l-0.627,0.585l-0.264,-0.551l0,21.609c0.378,0.088,0.765,0.139,1.165,0.156L14.327,20.495L14.053,20.129z" fill="#202020" id="0.1.6.10"/>
  <path  opacity="0.2" d="M14.053,20.129l-0.627,0.585l-0.264,-0.551l0,21.609c0.378,0.088,0.765,0.139,1.165,0.156L14.327,20.495L14.053,20.129z" fill="#353535" id="0.1.6.11"/>
  <path  opacity="0.2" d="M14.053,20.129l-0.627,0.585l-0.264,-0.551l0,21.609c0.378,0.088,0.765,0.139,1.165,0.156L14.327,20.495L14.053,20.129z" fill="#515151" id="0.1.6.12"/>
 </g>
 <g  opacity="0.2" id="0.1.7">
  <path  d="M26.324,21.263c0,-0.784,-0.636,-1.418,-1.418,-1.418c-0.78,0,-1.418,0.634,-1.418,1.418l0,-0.097c0,-0.783,0.638,-1.417,1.418,-1.417c0.782,0,1.418,0.634,1.418,1.417L26.324,21.263z" fill="#FFFFFF" id="0.1.7.0"/>
  <path  d="M5.695,21.263c0,-0.784,-0.635,-1.418,-1.418,-1.418c-0.784,0,-1.418,0.634,-1.418,1.418l0,-0.097c0,-0.783,0.634,-1.417,1.418,-1.417c0.783,0,1.418,0.634,1.418,1.417L5.695,21.263z" fill="#FFFFFF" id="0.1.7.1"/>
 </g>
 <g  opacity="0.2" id="0.1.8">
  <path  d="M26.324,48.552c0,-0.783,-0.636,-1.418,-1.418,-1.418c-0.78,0,-1.418,0.635,-1.418,1.418l0,-0.094c0,-0.783,0.638,-1.422,1.418,-1.422c0.782,0,1.418,0.639,1.418,1.422L26.324,48.552z" fill="#FFFFFF" id="0.1.8.0"/>
  <path  d="M5.695,48.552c0,-0.783,-0.635,-1.418,-1.418,-1.418c-0.784,0,-1.418,0.635,-1.418,1.418l0,-0.094c0,-0.783,0.634,-1.422,1.418,-1.422c0.783,0,1.418,0.639,1.418,1.422L5.695,48.552z" fill="#FFFFFF" id="0.1.8.1"/>
 </g>
 <g  id="0.1.9">
  <rect  y="43.116" width="0.436" fill="#808080" id="0.1.9.0" height="6.225" x="27.575"/>
  <rect  y="27.216" width="0.433" fill="#ABABAB" id="0.1.9.1" height="15.9" x="27.578"/>
  <polygon  points="29.102,43.671,28.291,44.569,28.291,38.312,29.102,37.411" fill="#666666" id="0.1.9.2"/>
  <path  d="M29.19,43.571l-1.179,-0.486l0,-6.256l1.086,0.445c0.0930001,0.137,0.0930001,0.137,0.0930001,0.137L29.19,43.571z" fill="#999999" id="0.1.9.3"/>
  <path  d="M28.011,43.019l0,0.135l0.942001,0.389c0.081,0.033,0.0990001,0.115,0.041,0.18l-0.597,0.66c-0.058,0.066,-0.106,0.15,-0.106,0.188s0.049,0.014,0.106,-0.051l0.686,-0.76c0.058,-0.066,0.106,-0.15,0.106,-0.188s-0.066,-0.094,-0.147,-0.127L28.011,43.019z" fill="#808080" id="0.1.9.4"/>
 </g>
 <g  id="0.1.10">
  <rect  y="43.116" width="0.435" fill="#808080" id="0.1.10.0" height="6.225" x="1.179"/>
  <rect  y="27.216" width="0.433" fill="#ABABAB" id="0.1.10.1" height="15.9" x="1.179"/>
  <polygon  points="0.088,43.671,0.899,44.569,0.899,38.312,0.088,37.411" fill="#666666" id="0.1.10.2"/>
  <path  d="M0,43.571l1.179,-0.486l0,-6.256l-1.086,0.445C0,37.411,0,37.411,0,37.411L0,43.571z" fill="#999999" id="0.1.10.3"/>
  <path  d="M1.179,43.019l0,0.135l-0.942001,0.389c-0.081,0.033,-0.0990001,0.115,-0.041,0.18l0.596,0.66c0.059,0.066,0.107,0.15,0.107,0.188s-0.048,0.014,-0.107,-0.051l-0.685,-0.76C0.049,43.692,0,43.608,0,43.571s0.066,-0.094,0.147,-0.127L1.179,43.019z" fill="#808080" id="0.1.10.4"/>
 </g>
</g>
</g></g><g partID='77580'><g transform='translate(0,101.312)' ><g xmlns="http://www.w3.org/2000/svg" id="breadboard">
<rect xmlns="http://www.w3.org/2000/svg" y="20.88" id="connector0pin" fill="none" width="2.16" height="2.88" x="0.6192"/>
<rect xmlns="http://www.w3.org/2000/svg" y="0" id="connector1pin" fill="none" width="2.16" height="2.88" x="7.8192"/>
<rect xmlns="http://www.w3.org/2000/svg" y="20.88" id="connector2pin" fill="none" width="2.16" height="2.88" x="15.0192"/>
<g xmlns="http://www.w3.org/2000/svg" y="21.6" id="connector0terminal" fill="none" width="2.16" height="2.16" x="0.6192"/>
<g xmlns="http://www.w3.org/2000/svg" y="0" id="connector1terminal" fill="none" width="2.16" height="2.16" x="7.8192"/>
<g xmlns="http://www.w3.org/2000/svg" y="21.6" id="connector2terminal" fill="none" width="2.16" height="2.16" x="15.0192"/>
<g xmlns="http://www.w3.org/2000/svg" id="legs">
<g xmlns="http://www.w3.org/2000/svg" id="pin0">
<rect xmlns="http://www.w3.org/2000/svg" y="19.8878" id="rect10" fill="#8C8C8C" width="4.89096" height="1.44" x="0.6192"/>
<rect xmlns="http://www.w3.org/2000/svg" y="20.0815" id="rect14" fill="#8C8C8C" width="2.16" height="3.67848" x="0.6192"/>
</g>
<g xmlns="http://www.w3.org/2000/svg" id="pin2">
<rect xmlns="http://www.w3.org/2000/svg" y="19.867" id="rect8" fill="#8C8C8C" width="4.91832" height="1.44" x="12.2609"/>
<rect xmlns="http://www.w3.org/2000/svg" y="20.0599" id="rect16" fill="#8C8C8C" width="2.16" height="3.70008" x="15.0192"/>
</g>
<g xmlns="http://www.w3.org/2000/svg" id="pin1">
<rect xmlns="http://www.w3.org/2000/svg" y="2.50488" id="rect12" fill="#8C8C8C" width="4.464" height="1.44" x="6.6672"/>
<rect xmlns="http://www.w3.org/2000/svg" id="rect18" fill="#8C8C8C" width="2.16" height="4.32" x="7.8192"/>
</g>
</g>
<path xmlns="http://www.w3.org/2000/svg" d="M8.89704,2.8656C3.98376,2.8656,0,6.85008,0,11.7662l0,8.89848l8.89704,0L17.7984,20.6647L17.7984,11.7648C17.7991,6.85008,13.8139,2.8656,8.89704,2.8656zM3.91104,15.1502l0,-6.768l9.9756,0l0,6.768L3.91104,15.1502z" id="path20" fill="#6B6B6B"/>
<path xmlns="http://www.w3.org/2000/svg" d="M7.36272,6.07392c-3.13848,0.84744,-4.99536,4.08096,-4.14936,7.21872c0.8496,3.1392,4.07952,4.9968,7.22088,4.1508c3.14136,-0.8496,4.9968,-4.08024,4.15008,-7.2216C13.7347,7.08264,10.5048,5.22432,7.36272,6.07392zM6.83496,13.3222l0.2556,-2.08152l3.11112,-0.84024l1.26936,1.66968L6.83496,13.3222z" id="path27" fill="#CECECE"/>
<g xmlns="http://www.w3.org/2000/svg">
<polygon xmlns="http://www.w3.org/2000/svg" points="8.21376,12.9506,10.0908,12.443,10.9051,15.4548,9.02808,15.9624" id="rect31"/>
<polygon xmlns="http://www.w3.org/2000/svg" points="10.2017,10.3997,11.471,12.0701,9.17352,9.04392,8.77032,7.55352,6.89544,8.06112,7.29576,9.55152,6.83496,13.3222,7.09056,11.2406" id="polygon33"/>
</g>
<g xmlns="http://www.w3.org/2000/svg" id="g35">
<polygon xmlns="http://www.w3.org/2000/svg" points="4.69512,11.8872,5.20128,13.7628,6.83496,13.3222,7.09056,11.2406" id="polygon37" fill="#4D4D4D"/>
<polygon xmlns="http://www.w3.org/2000/svg" points="10.2017,10.3997,11.471,12.0701,13.1054,11.6294,12.5971,9.75312" id="polygon39" fill="#4D4D4D"/>
</g>
<path xmlns="http://www.w3.org/2000/svg" opacity="0.3" d="M17.0971,11.9959c-0.03168,-0.54648,-0.11664,-1.10016,-0.26352,-1.64952c-0.13392,-0.49392,-0.31536,-0.9576,-0.53064,-1.39968l-0.3852,0.13104l-0.576,-0.76536c-0.16416,-0.24984,-0.34704,-0.48744,-0.53928,-0.71208l-0.60552,-0.80064l0.32904,-0.24696c-1.9584,-1.80216,-4.76352,-2.59776,-7.52328,-1.85328c-2.75544,0.7452,-4.78008,2.84472,-5.56488,5.38776l0.40752,0.04752l-0.12024,0.99792c-0.05112,0.29088,-0.08856,0.58608,-0.10656,0.88632L1.5048,12.9715l-0.3996,0.07848c0.03888,0.49176,0.11664,0.98496,0.24984,1.47816c0.14976,0.54936,0.35496,1.0692,0.60264,1.55808l0.41976,-0.3384c0.4896,0.99504,1.1844,1.8396,2.01384,2.50992l-0.42192,0.33552c1.93752,1.61064,4.59792,2.2896,7.21656,1.584c2.61504,-0.70776,4.57344,-2.63304,5.43456,-4.99896l-0.53208,-0.08064c0.3816,-0.99576,0.55584,-2.07576,0.47664,-3.1824L17.0971,11.9959zM10.4537,17.4694c-2.77992,0.7524,-5.64408,-0.89424,-6.39504,-3.67344c-0.74952,-2.78064,0.89424,-5.64408,3.67416,-6.39288c2.7828,-0.75168,5.64408,0.89352,6.39504,3.672C14.881,13.8578,13.2336,16.7191,10.4537,17.4694z" id="path41"/>
<path xmlns="http://www.w3.org/2000/svg" d="M6.94656,4.52808c-3.996,1.07712,-6.35904,5.18904,-5.27904,9.18216c1.07784,3.99384,5.18976,6.36048,9.18504,5.27904c3.99312,-1.07856,6.3576,-5.18976,5.27688,-9.18432C15.0516,5.81256,10.9411,3.44808,6.94656,4.52808zM10.4357,17.4434c-3.14064,0.846,-6.37344,-1.00872,-7.2216,-4.15008c-0.84888,-3.14208,1.00944,-6.37488,4.14936,-7.22232c3.14136,-0.84744,6.37416,1.01088,7.22304,4.15152C15.4325,13.3632,13.5749,16.5967,10.4357,17.4434z" id="path43"/>
<path xmlns="http://www.w3.org/2000/svg" d="M16.9027,11.3177c-0.03168,-0.5472,-0.1152,-1.1016,-0.26496,-1.65096c-0.13176,-0.49032,-0.31176,-0.95616,-0.5292,-1.39968l-0.38448,0.12888L14.0018,6.12l0.32832,-0.24696C12.3732,4.07088,9.56952,3.276,6.80976,4.02048c-2.75976,0.7452,-4.78152,2.844,-5.56632,5.38704l0.40608,0.04824L1.3104,12.2918l-0.3996,0.08136c0.03744,0.49176,0.11664,0.98496,0.2484,1.47456c0.14976,0.5508,0.3528,1.06992,0.60336,1.5588l1.13544,-0.91368l2.016,2.50488l-1.13976,0.91944c1.93464,1.60776,4.59576,2.286,7.21368,1.5804c2.6172,-0.70488,4.5756,-2.6316,5.43744,-4.9968l-1.4436,-0.21816l0.47592,-3.18024L16.9027,11.3177zM10.2586,16.7926c-2.77992,0.75024,-5.64408,-0.89496,-6.3936,-3.67488c-0.74952,-2.78064,0.89352,-5.64336,3.67488,-6.39216c2.78136,-0.75096,5.64192,0.8928,6.39288,3.67488C14.6844,13.1803,13.0385,16.0409,10.2586,16.7926z" id="path45" fill="#1A1A1A"/>
<circle xmlns="http://www.w3.org/2000/svg" opacity="0.4" cy="8.37432" cx="2.89224" id="circle47" fill="#FFFFFF" r="0.59976"/>
<circle xmlns="http://www.w3.org/2000/svg" opacity="0.4" cy="5.81112" cx="12.3862" id="circle49" fill="#FFFFFF" r="0.60048"/>
<g xmlns="http://www.w3.org/2000/svg" opacity="0.4" id="g51">
<path xmlns="http://www.w3.org/2000/svg" d="M7.22448,17.689l-0.252,-0.0612l0.05976,-0.25488l0.25056,0.05904l0.06048,-0.24984l0.50616,0.12024l-0.4824,2.0268l-0.5076,-0.12024L7.22448,17.689z" id="path53" fill="#FFFFFF"/>
<path xmlns="http://www.w3.org/2000/svg" d="M11.3702,19.0958l-1.0116,0.2556l-0.06408,-0.25488l-0.24984,0.06336l-0.38448,-1.51848l0.25128,-0.06336l-0.06408,-0.24984l1.01376,-0.2556l0.0612,0.252l0.25632,-0.06336l0.38232,1.51632l-0.25632,0.06336L11.3702,19.0958zM11.0542,18.9029l-0.3852,-1.51488l-0.50328,0.12816l0.38232,1.51632L11.0542,18.9029z" id="path55" fill="#FFFFFF"/>
<path xmlns="http://www.w3.org/2000/svg" d="M14.1566,16.3123l0.18288,-0.18144l0.18504,0.18504l-0.18216,0.18288l0.36792,0.37008l-0.37368,0.3708l-0.3672,-0.36792l-0.55512,0.54936l-0.36792,-0.3708l0.18216,-0.18l-0.36504,-0.37368l0.18432,-0.18432l0.37008,0.37008l-0.18792,0.1872l0.18288,0.18432l0.37152,-0.36792l-0.91944,-0.92304l0.37296,-0.3708L14.1566,16.3123z" id="path57" fill="#FFFFFF"/>
</g>
</g>
</g></g><path stroke='#8c8c8c' stroke-width='2.15136' stroke-linecap='round' stroke-linejoin='round' fill='none' d='M325.699,156.976L325.5,195.617' />
<path stroke='#8c8c8c' stroke-width='2.15136' stroke-linecap='round' stroke-linejoin='round' fill='none' d='M318.497,156.976L318.696,166.816' />
<g partID='79700'><g transform='translate(313.97,127.77)' ><g xmlns="http://www.w3.org/2000/svg" id="breadboard">
 <rect xmlns="http://www.w3.org/2000/svg" y="25.421" id="connector0pin" fill="none" width="2.15208" height="0.72" x="3.45096"/>
 <rect xmlns="http://www.w3.org/2000/svg" y="25.421" id="connector1pin" fill="none" width="2.15424" height="0.72" x="10.651"/>
 <g xmlns="http://www.w3.org/2000/svg" x2="6.287" y1="40.565" stroke="#8C8C8C" y2="74.754" stroke-linecap="round" id="connector0leg" fill="none" x1="6.287" stroke-width="2.15136"/>
 <g xmlns="http://www.w3.org/2000/svg" x2="16.29" y1="40.565" stroke="#8C8C8C" y2="74.754" stroke-linecap="round" id="connector1leg" fill="none" x1="16.29" stroke-width="2.15136"/>
 <rect xmlns="http://www.w3.org/2000/svg" y="19.3795" fill="#8C8C8C" width="2.15136" height="9.82728" x="3.45096"/>
 <path xmlns="http://www.w3.org/2000/svg" d="M12.8045,29.2068c0,-1.1736,-1.06488,-2.1024,-2.088,-2.9916c-0.41616,-0.3672,-1.19952,-1.00152,-1.19952,-1.42488l0,-5.47056l-2.16144,0l0,5.78016c0,1.0584,0.94752,1.87848,1.94616,2.74824c0.44424,0.37584,1.34856,1.24992,1.34856,1.76976" fill="#8C8C8C"/>
 <g xmlns="http://www.w3.org/2000/svg" id="g12">
  <path xmlns="http://www.w3.org/2000/svg" opacity="0.3" d="M14.1732,13.001L14.1732,7.0884C14.1732,3.1752,11.0052,0,7.08768,0C3.1752,0,0,3.16944,0,7.0884l0,13.649c1.47384,1.65096,4.0968,2.75256,7.08768,2.75256c4.61952,0,8.36856,-2.61792,8.36856,-5.85936l0,-1.52352C15.4555,14.9645,14.9818,13.9032,14.1732,13.001z" id="color_path14" fill="#e60000"/>
  <path xmlns="http://www.w3.org/2000/svg" opacity="0.5" d="M14.1732,13.001L14.1732,7.0884C14.1732,3.1752,11.0052,0,7.08768,0C3.1752,0,0,3.16944,0,7.0884l0,13.649c1.47384,1.65096,4.0968,2.75256,7.08768,2.75256c4.61952,0,8.36856,-2.61792,8.36856,-5.85936l0,-1.52352C15.4555,14.9645,14.9818,13.9032,14.1732,13.001z" id="path16" fill="#E6E6E6"/>
  <path xmlns="http://www.w3.org/2000/svg" opacity="0.9" d="M14.1732,13.001l0,3.10536c0,2.73888,-3.16584,4.96512,-7.08552,4.96512C3.1752,21.0715,0,18.8525,0,16.1064l0,3.10536L0,20.736c1.47384,1.65168,4.0968,2.75256,7.08768,2.75256c4.61952,0,8.36856,-2.61792,8.36856,-5.85864L15.4562,16.1064C15.4555,14.9645,14.9818,13.9032,14.1732,13.001z" id="path18" fill="#D1D1D1"/>
  <path xmlns="http://www.w3.org/2000/svg" opacity="0.7" d="M14.1732,13.001l0,3.10536c0,2.73888,-3.16584,4.96512,-7.08552,4.96512C3.1752,21.0715,0,18.8525,0,16.1064l0,3.10536L0,20.736c1.47384,1.65168,4.0968,2.75256,7.08768,2.75256c4.61952,0,8.36856,-2.61792,8.36856,-5.85864L15.4562,16.1064C15.4555,14.9645,14.9818,13.9032,14.1732,13.001z" id="color_path20" fill="#e60000"/>
  <path xmlns="http://www.w3.org/2000/svg" opacity="0.25" d="M14.1732,13.001l0,3.10536c0,2.73888,-3.16584,4.96512,-7.08552,4.96512C3.1752,21.0715,0,18.8525,0,16.1064l0,3.10536c1.47384,1.65024,4.0968,2.75256,7.08768,2.75256c4.61952,0,8.36856,-2.61792,8.36856,-5.85864C15.4555,14.9645,14.9818,13.9032,14.1732,13.001z" id="color_path22" fill="#e60000"/>
  <ellipse xmlns="http://www.w3.org/2000/svg" opacity="0.25" cy="16.1064" ry="4.9608" cx="7.08768" rx="7.08696" id="ellipse24" fill="#E6E6E6"/>
  <ellipse xmlns="http://www.w3.org/2000/svg" opacity="0.25" cy="16.1064" ry="4.9608" cx="7.08768" rx="7.08696" id="color_ellipse26" fill="#e60000"/>
  <polygon xmlns="http://www.w3.org/2000/svg" points="2.2032,9.648,2.2032,16.1071,3.19608,16.1071,3.19608,13.0946,6.0156,13.0946,10.0123,8.80488,3.40704,8.80488" id="polygon28" fill="#666666"/>
  <polygon xmlns="http://www.w3.org/2000/svg" points="10.7784,8.52408,11.2147,9.03384,7.41168,13.0946,11.0599,13.0946,11.0599,16.1071,11.9736,16.1071,11.9736,8.52408" id="polygon30" fill="#666666"/>
  <path xmlns="http://www.w3.org/2000/svg" opacity="0.65" d="M14.1732,13.001L14.1732,7.0884C14.1732,3.1752,11.0052,0,7.08768,0C3.1752,0,0,3.16944,0,7.0884l0,13.649c1.47384,1.65096,4.0968,2.75256,7.08768,2.75256c4.61952,0,8.36856,-2.61792,8.36856,-5.85936l0,-1.52352C15.4555,14.9645,14.9818,13.9032,14.1732,13.001z" id="color_path32" fill="#e60000"/>
  <path xmlns="http://www.w3.org/2000/svg" opacity="0.5" d="M10.3882,3.75408l1.4364,-0.2736c-0.84168,-1.13184,-2.08224,-1.95768,-3.54168,-2.23848l0.25416,1.08072C9.30096,2.59344,9.94392,3.1032,10.3882,3.75408z" id="path34" fill="#FFFFFF"/>
  <path xmlns="http://www.w3.org/2000/svg" opacity="0.5" d="M0.76824,19.926l0,1.51992c0.64872,0.5292,1.43352,0.97632,2.3076,1.31688l0,-1.52496C2.19744,20.9016,1.41912,20.4559,0.76824,19.926z" id="path36" fill="#FFFFFF"/>
  <path xmlns="http://www.w3.org/2000/svg" opacity="0.5" d="M11.0729,20.2097c-0.2556,0.1224,-0.52992,0.22968,-0.80568,0.32976c-0.05832,0.01944,-0.11736,0.04032,-0.17784,0.05832c-0.56376,0.17928,-1.16136,0.31896,-1.79496,0.39456c-0.07488,0.00936,-0.1512,0.01872,-0.22464,0.01944c-0.3204,0.03024,-0.64368,0.05832,-0.97056,0.05832c-0.14832,0,-0.30744,-0.01512,-0.4716,-0.02376c-1.20024,-0.05688,-2.33064,-0.31464,-3.2976,-0.73944L3.33,11.9174L3.33,7.092c0,-1.47096,0.84816,-2.72952,2.0736,-3.34944L5.38128,3.68928l-1.24776,-1.512c-1.66968,1.00296,-2.79,2.8224,-2.79,4.91184l0,11.9052c-0.04968,-0.04968,-0.30816,-0.30888,-0.48024,-0.52992l-0.30744,0.6876c1.40112,1.48176,3.8088,2.46168,6.54264,2.46168c1.67976,0,3.23712,-0.37368,4.51152,-1.00224l-0.52704,-0.40896C11.0729,20.2097,11.0729,20.2097,11.0729,20.2097z" id="path38" fill="#FFFFFF"/>
 </g>
</g>
</g></g><path stroke='#8c8c8c' stroke-width='2.0952' stroke-linecap='round' stroke-linejoin='round' fill='none' d='M318.499,194.945L318.499,195.992' />
<path stroke='#8c8c8c' stroke-width='2.0952' stroke-linecap='round' stroke-linejoin='round' fill='none' d='M318.499,168.235L318.499,167.187' />
<g partID='80330'><g transform='translate(322.132,166.14)' ><g transform='matrix(0,1,-1,0,0,0)'  ><g xmlns="http://www.w3.org/2000/svg" id="breadboard">
 <rect xmlns="http://www.w3.org/2000/svg" y="2.5848" id="connector0pin" fill="none" width="0.72" height="0.72" x="0.36"/>
 <rect xmlns="http://www.w3.org/2000/svg" y="2.5848" id="connector1pin" fill="none" width="0.72" height="0.72" x="29.8202"/>
 <line xmlns="http://www.w3.org/2000/svg" x2="2.0952" y1="3.6324" stroke="#8C8C8C" y2="3.6324" stroke-linecap="round" id="connector0leg" fill="none" x1="1.0476" stroke-width="2.0952"/>
 <line xmlns="http://www.w3.org/2000/svg" x2="28.805" y1="3.6324" stroke="#8C8C8C" y2="3.6324" stroke-linecap="round" id="connector1leg" fill="none" x1="29.8526" stroke-width="2.0952"/>
 <path xmlns="http://www.w3.org/2000/svg" stroke="#8C8C8C" d="M1.0476,3.6324l28.3666,0" fill="none" stroke-width="2.0952"/>
 <path xmlns="http://www.w3.org/2000/svg" d="M10.2478,0.49536c-0.36,-0.1656,-0.9792,-0.2952,-1.3752,-0.2952l-1.9872,0c-0.396,0,-0.72,0.324,-0.72,0.72l0,5.35608c0,0.39672,0.324,0.72,0.72,0.72l1.9872,0c0.396,0,1.0152,-0.13608,1.3752,-0.2952l0.072,-0.03528c0.36,-0.1656,0.9792,-0.2952,1.3752,-0.2952l7.1856,0c0.39672,0,1.01448,0.13608,1.37448,0.2952l0.07272,0.03528c0.36,0.1656,0.97776,0.2952,1.3752,0.2952l1.9872,0c0.39744,0,0.72,-0.32328,0.72,-0.72L24.4102,0.92016c0,-0.396,-0.32256,-0.72,-0.72,-0.72l-1.9872,0c-0.39744,0,-1.0152,0.1368,-1.3752,0.2952l-0.07272,0.036c-0.36,0.1656,-0.97776,0.2952,-1.37448,0.2952l-7.1856,0c-0.396,0,-1.0152,-0.1368,-1.3752,-0.2952L10.2478,0.49536z" id="body" fill="#D9B477"/>
 <rect xmlns="http://www.w3.org/2000/svg" y="0.19368" id="gold_band" fill="#ad9f4e" width="0.70272" height="6.79536" x="22.019"/>
 <rect xmlns="http://www.w3.org/2000/svg" y="0.82656" id="band_rd_multiplier" fill="#8a3d06" width="1.8504" height="5.5368" x="16.1726"/>
 <rect xmlns="http://www.w3.org/2000/svg" y="0.82656" id="band_2_nd" fill="#c40808" width="1.8504" height="5.5368" x="12.4726"/>
 <path xmlns="http://www.w3.org/2000/svg" d="M10.6286,0.63936c-0.1152,-0.036,-0.2232,-0.072,-0.3096,-0.1152l-0.072,-0.036c-0.36,-0.16488,-0.9792,-0.2952,-1.3752,-0.2952l-0.0864,0l0,6.79608l0.0864,0c0.396,0,1.0152,-0.13608,1.3752,-0.2952l0.072,-0.03528c0.0864,-0.04464,0.1944,-0.07992,0.3096,-0.1152L10.6286,0.63936z" id="band_1_st" fill="#c40808"/>
 <path xmlns="http://www.w3.org/2000/svg" opacity="0.3" d="M23.711,4.0896L23.711,4.0896c0,0.37944,-0.13032,0.69912,-0.2952,0.69912l-1.9224,0c-0.38016,0,-0.97776,-0.05616,-1.33272,-0.1224L20.088,4.65048c-0.34488,-0.0648,-0.94896,-0.1224,-1.33344,-0.1224L11.808,4.52808c-0.3816,0,-0.9792,0.0576,-1.332,0.1224l-0.072,0.01512c-0.3456,0.06552,-0.9432,0.1224,-1.332,0.1224l-0.3168,0l-1.0008,0l-0.3096,0c-0.3816,0,-0.6984,0.29376,-0.6984,0.64512l0,0.24696L6.7464,5.8392l0,0.1728c0,0.36,0.3168,0.64512,0.6984,0.64512l1.62,0c0.3816,0,0.9792,-0.1224,1.332,-0.26712l0.072,-0.02808c0.3456,-0.14112,0.9504,-0.26496,1.332,-0.26496l6.94656,0c0.37944,0,0.97704,0.12384,1.33416,0.26568l0.07416,0.02808c0.34488,0.14472,0.94464,0.26712,1.33344,0.26712l2.2248,0c0.38088,0,0.69912,-0.2952,0.69912,-0.64512L24.413,5.472L24.413,4.49928L24.413,2.65536C24.1358,2.76336,23.711,3.06576,23.711,4.0896z" id="Shadow"/>
 <rect xmlns="http://www.w3.org/2000/svg" opacity="0.4" y="3.48336" id="ShadowExtra" width="0.70272" height="3.15288" x="22.019"/>
 <path xmlns="http://www.w3.org/2000/svg" opacity="0.25" d="M19.751,1.08576c0.22968,0,0.49104,-0.1008,0.6624,-0.1728c0.2016,-0.0792,0.57672,-0.144,0.96624,-0.144l1.46088,0c0.22464,0,0.22464,0.2448,0.22464,0.3744c0,0.1296,-0.01512,0.3816,-0.22464,0.3816l-3.06,0c-0.10728,0,-0.2304,-0.1152,-0.2304,-0.22392C19.5566,1.21536,19.6286,1.08576,19.751,1.08576z" id="ReflexRight" fill="#FFFFFF"/>
 <circle xmlns="http://www.w3.org/2000/svg" opacity="0.35" cy="1.13616" cx="6.99984" id="ReflexLeft" fill="#FFFFFF" r="0.432"/>
 <rect xmlns="http://www.w3.org/2000/svg" opacity="0.5" y="0.42336" id="Reflex_gold" fill="#FFFF33" width="0.70272" height="1.62" x="22.019"/>
 <rect xmlns="http://www.w3.org/2000/svg" opacity="0.5" y="0.78336" id="Reflex_extra" fill="#FFFFFF" width="0.70272" height="0.7488" x="22.019"/>
</g>
</g></g></g><g partID='76740'><line stroke-linecap='round' stroke='#157de6' x1='188.899' y1='51.9925' x2='232.099' y2='87.9925' stroke-width='0.8' /></g><g partID='77270'><line stroke-linecap='round' stroke='#a37911' x1='224.897' y1='87.9925' x2='275.299' y2='51.9925' stroke-width='0.8' /></g><g partID='77470'><line stroke-linecap='round' stroke='#00a527' x1='253.071' y1='51.9925' x2='203.294' y2='44.7925' stroke-width='0.8' /></g></svg>